<?xml version="1.0" encoding="UTF-8"?>
<svg xmlns="http://www.w3.org/2000/svg" width="500" height="500" viewBox="0 0 497.66 497.66">
  <path fill="#b81104" d="M248.83,0C111.4,0,0,111.4,0,248.83s111.4,248.83,248.83,248.83,248.83-111.4,248.83-248.83S386.25,0,248.83,0ZM125.31,152.82c2.8-4.43,7.47-7.33,12.68-7.88,73.01-7.66,148.72-7.65,221.73,0,5.22.55,9.9,3.46,12.7,7.91,12.72,20.2,23.41,47.82,32.94,79.67-105.85-8.56-207.16-8.57-313.01,0,9.5-31.86,20.19-59.49,32.96-79.69ZM98.64,313.37c-14.54,0-24.36-12.6-21.93-28.13,2.43-15.53,16.2-28.13,30.74-28.13s24.36,12.6,21.93,28.13c-2.43,15.53-16.2,28.13-30.74,28.13ZM365.94,332.32c-10.2,15.74-20.45,19.21-38.69,22.04-35.19,5.46-121.62,5.48-156.8,0-18.47-2.86-28.32-6.29-38.76-22.04-5.08-7.87-6.02-14.53,1.9-14.53h230.48c7.84,0,6.97,6.66,1.87,14.53ZM399.01,313.37c-14.54,0-28.31-12.6-30.74-28.13-2.43-15.53,7.39-28.13,21.93-28.13s28.31,12.6,30.74,28.13c2.43,15.53-7.39,28.13-21.93,28.13Z"/>
</svg>
