<?xml version="1.0" encoding="UTF-8"?>
<svg xmlns="http://www.w3.org/2000/svg" viewBox="0 0 497.66 497.66">
  <rect width="497.66" height="497.66" rx="104" fill="#0d0f12"/>
  <path fill="#b81104" d="M248.83,58C143.42,58,58,143.42,58,248.83s85.42,190.83,190.83,190.83,190.83-85.42,190.83-190.83S354.24,58,248.83,58Zm-94.78,117.2c2.15-3.4,5.73-5.62,9.73-6.04,56-5.88,114.08-5.87,170.08,0,4,.42,7.59,2.65,9.74,6.06,9.76,15.5,17.96,36.68,25.27,61.11-81.2-6.57-158.93-6.58-240.13,0,7.29-24.44,15.49-45.63,25.31-61.13Zm-20.46,123.17c-11.15,0-18.68-9.66-16.82-21.58,1.86-11.91,12.42-21.58,23.57-21.58s18.68,9.67,16.82,21.58c-1.86,11.92-12.42,21.58-23.57,21.58Zm205.1,14.53c-7.82,12.07-15.69,14.74-29.68,16.91-26.99,4.19-93.27,4.2-120.25,0-14.17-2.2-21.72-4.83-29.73-16.91-3.9-6.04-4.62-11.15,1.46-11.15h176.79c6.01,0,5.34,5.11,1.43,11.15Zm25.36-14.53c-11.15,0-21.71-9.66-23.57-21.58-1.86-11.91,5.67-21.58,16.82-21.58s21.71,9.67,23.57,21.58c1.86,11.92-5.67,21.58-16.82,21.58Z"/>
</svg>
